<?xml version="1.0" encoding="utf-8"?>
<!-- Generator: Adobe Illustrator 25.3.1, SVG Export Plug-In . SVG Version: 6.00 Build 0)  -->
<svg version="1.1" id="Layer_2_1_" xmlns="http://www.w3.org/2000/svg" xmlns:xlink="http://www.w3.org/1999/xlink" x="0px" y="0px"
	 viewBox="0 0 1500 1000" style="enable-background:new 0 0 1500 1000;" xml:space="preserve">
<style type="text/css">
	.st0{fill:url(#SVGID_1_);}
	.st1{fill:url(#SVGID_2_);}
	.st2{fill:url(#SVGID_3_);}
	.st3{fill:url(#SVGID_4_);}
	.st4{fill:url(#SVGID_5_);}
	.st5{fill:url(#SVGID_6_);}
	.st6{fill:url(#SVGID_7_);}
	.st7{fill:url(#SVGID_8_);}
	.st8{fill:url(#SVGID_9_);}
	.st9{fill:url(#SVGID_10_);}
	.st10{fill:url(#SVGID_11_);}
	.st11{fill:url(#SVGID_12_);}
	.st12{fill:url(#SVGID_13_);}
	.st13{fill:url(#SVGID_14_);}
	.st14{fill:url(#SVGID_15_);}
	.st15{fill:#CF8810;}
	.st16{fill:url(#SVGID_16_);}
	.st17{fill:url(#SVGID_17_);}
	.st18{fill:url(#SVGID_18_);}
	.st19{fill:url(#SVGID_19_);}
	.st20{fill:url(#SVGID_20_);}
	.st21{fill:url(#SVGID_21_);}
	.st22{fill:#FFFFFF;}
	.st23{fill:url(#SVGID_22_);}
	.st24{fill:url(#SVGID_23_);}
	.st25{fill:url(#SVGID_24_);}
	.st26{fill:url(#SVGID_25_);}
	.st27{fill:url(#SVGID_26_);}
	.st28{fill:url(#SVGID_27_);}
	.st29{fill:url(#SVGID_28_);}
	.st30{fill:url(#SVGID_29_);}
	.st31{fill:url(#SVGID_30_);}
	.st32{fill:url(#SVGID_31_);}
</style>
<g>
	<g>
		
			<linearGradient id="SVGID_1_" gradientUnits="userSpaceOnUse" x1="429.305" y1="487.13" x2="452.405" y2="487.13" gradientTransform="matrix(1 0 0 -1 0 1000)">
			<stop  offset="0" style="stop-color:#935004"/>
			<stop  offset="1" style="stop-color:#C78C34"/>
		</linearGradient>
		<path class="st0" d="M429.3,503.48c2.23,6.26,4.46,12.52,6.69,18.78c2.92-0.69,6.31-1.72,9.95-3.3c2.43-1.06,4.58-2.19,6.46-3.3
			C444.7,511.6,437,507.54,429.3,503.48z"/>
		
			<linearGradient id="SVGID_2_" gradientUnits="userSpaceOnUse" x1="90.5723" y1="492.0391" x2="114.6461" y2="477.97" gradientTransform="matrix(-1 0 0 -1 535.7582 1000)">
			<stop  offset="0.2151" style="stop-color:#864A03"/>
			<stop  offset="0.8663" style="stop-color:#D79827"/>
		</linearGradient>
		<path class="st1" d="M431,505.44l19.45,10.25c-1.59,0.88-3.23,1.69-4.88,2.4c-2.89,1.26-5.9,2.28-8.97,3.05L431,505.44z"/>
		
			<linearGradient id="SVGID_3_" gradientUnits="userSpaceOnUse" x1="463.6004" y1="487.13" x2="486.7004" y2="487.13" gradientTransform="matrix(-1 0 0 -1 798.3854 1000)">
			<stop  offset="0" style="stop-color:#935004"/>
			<stop  offset="1" style="stop-color:#C78C34"/>
		</linearGradient>
		<path class="st2" d="M334.78,503.48c-2.23,6.26-4.46,12.52-6.69,18.78c-2.92-0.69-6.31-1.72-9.95-3.3
			c-2.43-1.06-4.58-2.19-6.46-3.3C319.38,511.6,327.08,507.54,334.78,503.48z"/>
		
			<linearGradient id="SVGID_4_" gradientUnits="userSpaceOnUse" x1="56.2781" y1="492.0385" x2="80.3519" y2="477.9694" gradientTransform="matrix(1 0 0 -1 262.6271 1000)">
			<stop  offset="0.2151" style="stop-color:#864A03"/>
			<stop  offset="0.8663" style="stop-color:#D79827"/>
		</linearGradient>
		<path class="st3" d="M333.08,505.44l-19.45,10.25c1.59,0.88,3.23,1.69,4.88,2.4c2.89,1.26,5.9,2.28,8.97,3.05L333.08,505.44z"/>
		<g>
			
				<linearGradient id="SVGID_5_" gradientUnits="userSpaceOnUse" x1="405.8064" y1="570.101" x2="354.4796" y2="536.596" gradientTransform="matrix(1 0 0 -1 0 1000)">
				<stop  offset="0" style="stop-color:#F9D66F"/>
				<stop  offset="1" style="stop-color:#EBB344"/>
			</linearGradient>
			<path class="st4" d="M365.68,417.65c10.7,0.05,21.39,0.11,32.09,0.16c5.02,9.51,10.04,19.02,15.06,28.53
				c-4.89,8.99-9.77,17.99-14.66,26.98c-10.89,0-21.79,0-32.68,0c-4.99-9.43-9.98-18.87-14.97-28.3
				C355.56,435.9,360.62,426.78,365.68,417.65z"/>
		</g>
		<g>
			
				<linearGradient id="SVGID_6_" gradientUnits="userSpaceOnUse" x1="401.8296" y1="567.2268" x2="359.0573" y2="539.9001" gradientTransform="matrix(1 0 0 -1 0 1000)">
				<stop  offset="0" style="stop-color:#F4BC46"/>
				<stop  offset="0.3003" style="stop-color:#F1B23A"/>
				<stop  offset="1" style="stop-color:#EA9D23"/>
			</linearGradient>
			<polygon class="st5" points="366.08,472.33 351.64,445.04 366.27,418.65 397.17,418.81 411.69,446.34 397.57,472.33 			"/>
		</g>
		<g>
			
				<linearGradient id="SVGID_7_" gradientUnits="userSpaceOnUse" x1="328.8412" y1="586.8557" x2="290.3461" y2="492.7567" gradientTransform="matrix(1 0 0 -1 0 1000)">
				<stop  offset="0" style="stop-color:#F9D66F"/>
				<stop  offset="1" style="stop-color:#EBB344"/>
			</linearGradient>
			<path class="st6" d="M288.68,425.1c16.1,8.47,32.19,16.95,48.29,25.42c5.35,10.3,10.71,20.59,16.06,30.89
				c-15.19,8.63-30.38,17.26-45.57,25.9c-13.71-8.14-27.41-16.28-41.12-24.41c-0.01-14.77-0.02-29.54-0.03-44.32
				C273.77,434.08,281.22,429.59,288.68,425.1z"/>
		</g>
		<g>
			
				<linearGradient id="SVGID_8_" gradientUnits="userSpaceOnUse" x1="262.6349" y1="503.9829" x2="344.1397" y2="566.4778" gradientTransform="matrix(1 0 0 -1 0 1000)">
				<stop  offset="0" style="stop-color:#C97508"/>
				<stop  offset="0.582" style="stop-color:#D79827"/>
				<stop  offset="0.7793" style="stop-color:#E5AC39"/>
				<stop  offset="1" style="stop-color:#F8C752"/>
			</linearGradient>
			<polygon class="st7" points="267.34,482.32 267.31,439.14 288.71,426.24 336.22,451.26 351.7,481.01 307.47,506.15 			"/>
		</g>
		<g>
			
				<linearGradient id="SVGID_9_" gradientUnits="userSpaceOnUse" x1="458.8686" y1="582.802" x2="452.6309" y2="503.4951" gradientTransform="matrix(1 0 0 -1 0 1000)">
				<stop  offset="0" style="stop-color:#F9D66F"/>
				<stop  offset="1" style="stop-color:#EBB344"/>
			</linearGradient>
			<path class="st8" d="M474.76,425.1c-16.1,8.47-32.19,16.95-48.29,25.42c-5.35,10.3-10.71,20.59-16.06,30.89
				c15.6,8.73,31.2,17.46,46.8,26.19c13.3-8.24,26.59-16.47,39.89-24.71c0.01-14.77,0.02-29.54,0.03-44.32
				C489.67,434.08,482.22,429.59,474.76,425.1z"/>
		</g>
		<g>
			
				<linearGradient id="SVGID_10_" gradientUnits="userSpaceOnUse" x1="501.5177" y1="532.7144" x2="468.0127" y2="533.6054" gradientTransform="matrix(1 0 0 -1 0 1000)">
				<stop  offset="0.0169" style="stop-color:#A57215"/>
				<stop  offset="1" style="stop-color:#ECB441"/>
			</linearGradient>
			<polygon class="st9" points="411.75,481.01 427.22,451.26 474.73,426.24 496.13,439.14 496.1,482.33 457.18,506.44 			"/>
		</g>
		<g>
			
				<linearGradient id="SVGID_11_" gradientUnits="userSpaceOnUse" x1="395.322" y1="515.619" x2="382.9656" y2="478.6685" gradientTransform="matrix(1 0 0 -1 0 1000)">
				<stop  offset="0" style="stop-color:#F9D66F"/>
				<stop  offset="1" style="stop-color:#EBB344"/>
			</linearGradient>
			<path class="st10" d="M342.5,524.55c0.76-4.9,2.71-13.1,8.29-21.6c3.94-6.01,8.38-10.15,11.73-12.8
				c12.89-0.06,25.79-0.12,38.68-0.18c5.49,4.63,13.4,12.76,18.12,25.04c1.3,3.38,2.18,6.6,2.77,9.55
				C395.56,524.56,369.03,524.56,342.5,524.55z"/>
		</g>
		
			<linearGradient id="SVGID_12_" gradientUnits="userSpaceOnUse" x1="344.1272" y1="492.333" x2="418.0282" y2="492.8083" gradientTransform="matrix(1 0 0 -1 0 1000)">
			<stop  offset="0" style="stop-color:#CE840D"/>
			<stop  offset="0.5134" style="stop-color:#E9A932"/>
			<stop  offset="1" style="stop-color:#D09424"/>
		</linearGradient>
		<path class="st11" d="M343.68,523.55c1.28-7.23,3.95-13.97,7.94-20.05c3.07-4.68,6.85-8.83,11.25-12.35l37.96-0.18
			c8.07,6.88,13.97,15.09,17.55,24.4c1.02,2.65,1.85,5.4,2.47,8.2L343.68,523.55z"/>
		<g>
			
				<linearGradient id="SVGID_13_" gradientUnits="userSpaceOnUse" x1="395.6818" y1="480.4839" x2="374.8303" y2="437.89" gradientTransform="matrix(1 0 0 -1 0 1000)">
				<stop  offset="0" style="stop-color:#F9D66F"/>
				<stop  offset="1" style="stop-color:#D69717"/>
			</linearGradient>
			<path class="st12" d="M423.88,539.64c0.2,6.03-0.43,14.11-3.94,22.72c-0.79,1.94-1.65,3.72-2.55,5.36
				c-23.24-0.13-46.47-0.26-69.71-0.39c-2.1-3.28-4.9-8.55-6.33-15.55c-0.99-4.88-1.02-9.15-0.79-12.36
				C368.34,539.5,396.11,539.57,423.88,539.64z"/>
		</g>
		
			<linearGradient id="SVGID_14_" gradientUnits="userSpaceOnUse" x1="347.9719" y1="446.415" x2="418.0299" y2="446.415" gradientTransform="matrix(1 0 0 -1 0 1000)">
			<stop  offset="0" style="stop-color:#CD820B"/>
			<stop  offset="0.2421" style="stop-color:#D18A14"/>
			<stop  offset="1" style="stop-color:#DC9F2B"/>
		</linearGradient>
		<path class="st13" d="M348.24,566.34c-2.85-4.56-4.83-9.52-5.9-14.75c-0.74-3.66-1.02-7.41-0.83-11.15l81.39,0.21
			c0.13,7.53-1.18,14.7-3.89,21.34c-0.66,1.61-1.4,3.2-2.22,4.74L348.24,566.34z"/>
		<g>
			
				<linearGradient id="SVGID_15_" gradientUnits="userSpaceOnUse" x1="385.4558" y1="439.0598" x2="378.0895" y2="392.3667" gradientTransform="matrix(1 0 0 -1 0 1000)">
				<stop  offset="0" style="stop-color:#F9D66F"/>
				<stop  offset="1" style="stop-color:#D69717"/>
			</linearGradient>
			<path class="st14" d="M408.19,582.11c-4.21,6.83-10.03,14.64-18.06,22.17c-2.63,2.47-5.25,4.68-7.79,6.64
				c-5.13-4.1-10.88-9.37-16.61-16.01c-3.85-4.47-7.04-8.82-9.69-12.85C373.43,582.08,390.81,582.09,408.19,582.11z"/>
		</g>
		<path class="st15" d="M382.35,609.65c-5.73-4.64-11.06-9.82-15.86-15.39c-3.05-3.55-5.93-7.31-8.57-11.2l48.46,0.05
			c-4.82,7.54-10.51,14.41-16.93,20.44C387.19,605.68,384.8,607.72,382.35,609.65z"/>
		
			<linearGradient id="SVGID_16_" gradientUnits="userSpaceOnUse" x1="461.2148" y1="610.9282" x2="435.0168" y2="553.8984" gradientTransform="matrix(1 0 0 -1 0 1000)">
			<stop  offset="0" style="stop-color:#F5CA5E"/>
			<stop  offset="1" style="stop-color:#CC8A1A"/>
		</linearGradient>
		<path class="st16" d="M453.62,413.82c2.63,0.6,4.61,2.02,5.93,3.26c1.18,1.1,2.84,1.63,4.42,1.29c1.04-0.22,1.91-0.72,2.49-1.46
			c1.37-1.77,0.48-4.64-0.24-5.94c-2.64-4.81-12.22-5.23-18.78-3.63c-6.63,1.62-10.73,5.45-13.52,8.06
			c-8.65,8.07-10.44,17.11-9.75,20.05c0.12,0.5,0.47,1.99,1.22,2.11c0.63,0.09,1.37-0.78,1.52-1.23
			c1.43-4.17,5.41-13.92,14.69-19.46C444.59,415.07,449.39,412.86,453.62,413.82z"/>
		
			<linearGradient id="SVGID_17_" gradientUnits="userSpaceOnUse" x1="456.0927" y1="588.1265" x2="427.802" y2="568.9811" gradientTransform="matrix(1 0 0 -1 0 1000)">
			<stop  offset="0" style="stop-color:#D3880A"/>
			<stop  offset="0.6585" style="stop-color:#E49C1B"/>
			<stop  offset="1" style="stop-color:#EEA825"/>
		</linearGradient>
		<path class="st17" d="M425.57,436.48c-0.1-0.17-0.26-0.53-0.43-1.26c-0.53-2.25,0.74-10.94,9.46-19.09
			c2.67-2.49,6.7-6.26,13.07-7.82c2.14-0.52,4.6-0.81,6.93-0.81c5.37,0,9.38,1.48,10.74,3.95c0.65,1.19,1.32,3.57,0.33,4.85
			c-0.42,0.54-1.08,0.91-1.91,1.09c-0.25,0.05-0.5,0.08-0.76,0.08c-1,0-2.01-0.41-2.77-1.12c-1.91-1.79-4.06-2.97-6.39-3.5
			c-0.76-0.17-1.56-0.26-2.39-0.26c-3.85,0-7.76,1.86-10.37,3.41c-9.04,5.41-13.36,14.85-15.12,20
			C425.91,436.13,425.72,436.36,425.57,436.48z"/>
		
			<linearGradient id="SVGID_18_" gradientUnits="userSpaceOnUse" x1="506.3949" y1="610.9286" x2="480.1969" y2="553.8989" gradientTransform="matrix(-1 0 0 -1 807.8798 1000)">
			<stop  offset="0" style="stop-color:#F5CA5E"/>
			<stop  offset="1" style="stop-color:#CC8A1A"/>
		</linearGradient>
		<path class="st18" d="M309.07,413.82c-2.63,0.6-4.61,2.02-5.93,3.26c-1.18,1.1-2.84,1.63-4.42,1.29
			c-1.04-0.22-1.91-0.72-2.49-1.46c-1.37-1.77-0.48-4.64,0.24-5.94c2.64-4.81,12.22-5.23,18.78-3.63
			c6.63,1.62,10.73,5.45,13.52,8.06c8.65,8.07,10.44,17.11,9.75,20.05c-0.12,0.5-0.47,1.99-1.22,2.11
			c-0.63,0.09-1.37-0.78-1.52-1.23c-1.43-4.17-5.41-13.92-14.69-19.46C318.1,415.07,313.3,412.86,309.07,413.82z"/>
		
			<linearGradient id="SVGID_19_" gradientUnits="userSpaceOnUse" x1="501.2733" y1="588.127" x2="472.9826" y2="568.9817" gradientTransform="matrix(-1 0 0 -1 807.8798 1000)">
			<stop  offset="0" style="stop-color:#D3880A"/>
			<stop  offset="0.6585" style="stop-color:#E49C1B"/>
			<stop  offset="1" style="stop-color:#EEA825"/>
		</linearGradient>
		<path class="st19" d="M337.12,436.48c0.1-0.17,0.26-0.53,0.43-1.26c0.53-2.25-0.74-10.94-9.46-19.09
			c-2.67-2.49-6.7-6.26-13.07-7.82c-2.14-0.52-4.6-0.81-6.93-0.81c-5.37,0-9.38,1.48-10.74,3.95c-0.65,1.19-1.32,3.57-0.33,4.85
			c0.42,0.54,1.08,0.91,1.91,1.09c0.25,0.05,0.5,0.08,0.76,0.08c1,0,2.01-0.41,2.77-1.12c1.91-1.79,4.06-2.97,6.39-3.5
			c0.76-0.17,1.56-0.26,2.39-0.26c3.85,0,7.76,1.86,10.37,3.41c9.04,5.41,13.36,14.85,15.12,20
			C336.78,436.13,336.97,436.36,337.12,436.48z"/>
		<g>
			
				<linearGradient id="SVGID_20_" gradientUnits="userSpaceOnUse" x1="525.7584" y1="607.0889" x2="246.3129" y2="403.2078" gradientTransform="matrix(1 0 0 -1 0 1000)">
				<stop  offset="0" style="stop-color:#EFDE8E"/>
				<stop  offset="0.5241" style="stop-color:#CB912C"/>
				<stop  offset="1" style="stop-color:#CC7813"/>
			</linearGradient>
			<path class="st20" d="M532.26,409.27c-50.02-28.37-100.04-56.74-150.06-85.11c-50.22,28.13-100.44,56.25-150.66,84.38
				c-0.09,59.27-0.17,118.54-0.26,177.81c50.35,29.83,100.7,59.66,151.05,89.49c50.21-29.72,100.42-59.44,150.63-89.16
				C532.73,527.54,532.49,468.41,532.26,409.27z M460.52,574.41c-0.02-6.74-0.03-13.48-0.05-20.22c4.26-2.74,8.52-5.48,12.78-8.21
				c5.92,4.06,11.84,8.13,17.76,12.19v16.55c-4.8,2.89-9.6,5.79-14.4,8.68C471.25,580.41,465.89,577.41,460.52,574.41z
				 M475.93,601.77c-7.41,4.38-14.82,8.77-22.24,13.15c-2.99-2.14-5.97-4.29-8.96-6.43v-18.06c4.96-3.1,9.91-6.21,14.87-9.3
				c5.43,3.16,10.85,6.32,16.28,9.48C475.91,594.32,475.92,598.04,475.93,601.77z M489.5,550.5c0-5.56,0-11.11,0-16.67
				c4.88-2.95,9.76-5.9,14.65-8.83c4.24,2.45,8.49,4.91,12.74,7.36c-0.01,5.91-0.02,11.83-0.03,17.74
				c-4.85,2.97-9.71,5.95-14.55,8.91C498.03,556.18,493.76,553.34,489.5,550.5z M260.17,558.91c-4.27-2.69-8.54-5.38-12.81-8.08
				c0.02-6.49,0.03-12.98,0.05-19.46c4.34-2.53,8.68-5.07,13.01-7.6c4.64,2.9,9.28,5.79,13.92,8.69c0.04,5.75,0.07,11.51,0.11,17.26
				C269.7,552.79,264.94,555.85,260.17,558.91z M289.6,545.48c4.58,2.81,9.16,5.62,13.75,8.42c0.03,7.22,0.05,14.43,0.08,21.65
				c-5.69,2.97-11.38,5.95-17.07,8.92c-4.81-2.91-9.62-5.81-14.43-8.72c0.02-5.96,0.04-11.93,0.06-17.89
				C277.85,553.74,283.72,549.61,289.6,545.48z M247.35,557.97c4.28,2.41,8.55,4.81,12.83,7.22c2.26-1.28,4.51-2.57,6.77-3.85
				c0.02,5.84,0.04,11.68,0.06,17.52c5.31,3.59,10.63,7.17,15.94,10.76c0,2.78,0,5.57,0,8.35L247.3,576.9
				C247.32,570.59,247.33,564.28,247.35,557.97z M337.37,630.13c0-6.08,0-12.16,0-18.24c4.08-1.08,7.11-4.99,7.11-9.65
				c0-5.5-4.21-9.96-9.4-9.96s-9.4,4.46-9.4,9.96c0,5.38,4.03,9.76,9.07,9.94c0,5.47,0,10.93,0,16.4l-46.31-27.37
				c0-3.81-0.01-7.62-0.01-11.43c5.66-2.92,11.33-5.85,16.99-8.77c4.85,3.31,9.69,6.63,14.54,9.94c0.07,9.67,0.15,19.35,0.22,29.02
				c1.63,0.96,3.26,1.93,4.9,2.89c-0.05-11.7-0.11-23.41-0.16-35.11c-5.57-3.64-11.15-7.28-16.72-10.93
				c0.01-8.8,0.03-17.61,0.04-26.41c-6.22-3.75-12.43-7.5-18.65-11.26c-3.1,1.79-6.21,3.58-9.31,5.37
				c-0.02-4.94-0.04-9.88-0.06-14.83c-6.68-3.82-13.36-7.65-20.04-11.47c-4.25,2.29-8.5,4.58-12.75,6.87
				c0.09-35.56,0.17-71.12,0.26-106.67c44.9-25.46,89.8-50.92,134.71-76.38c44.9,25.37,89.8,50.74,134.7,76.12
				c-0.07,35.96-0.14,71.93-0.2,107.89c-4.27-2.52-8.55-5.04-12.82-7.55c-6.86,3.91-13.71,7.82-20.58,11.73
				c0.03,5.23,0.05,10.45,0.07,15.68c-3.56-1.96-7.12-3.91-10.67-5.87c-5.88,3.67-11.74,7.33-17.61,10.99
				c-0.04,8.85-0.08,17.71-0.12,26.56c-5.58,3.48-11.15,6.95-16.74,10.41c0.32,7.06,0.63,14.12,0.95,21.18
				c3.7,2.54,7.4,5.08,11.1,7.61c-6.79,4.02-13.59,8.04-20.38,12.05c0-5.63,0-11.25,0-16.88c4.83-0.41,8.64-4.69,8.64-9.92
				c0-5.5-4.21-9.96-9.4-9.96s-9.4,4.46-9.4,9.96c0,4.83,3.24,8.85,7.55,9.76c0,6.19,0,12.39,0,18.58
				c-14.93,8.83-29.85,17.65-44.78,26.48L337.37,630.13z M481.82,598.29c0.03-3.71,0.07-7.41,0.1-11.12
				c5.09-3.13,10.18-6.27,15.27-9.39v-15.4c1.73,1.02,3.46,2.05,5.18,3.08c4.83-2.91,9.65-5.82,14.47-8.73
				c-0.01,6.96-0.03,13.92-0.04,20.88C505.14,584.5,493.48,591.39,481.82,598.29z"/>
		</g>
		
			<linearGradient id="SVGID_21_" gradientUnits="userSpaceOnUse" x1="531.4709" y1="596.7297" x2="279.837" y2="437.6292" gradientTransform="matrix(1 0 0 -1 0 1000)">
			<stop  offset="0" style="stop-color:#F8C752"/>
			<stop  offset="0.1373" style="stop-color:#ECB641"/>
			<stop  offset="0.4064" style="stop-color:#CD8B16"/>
			<stop  offset="0.5057" style="stop-color:#C17A05"/>
			<stop  offset="1" style="stop-color:#B45F00"/>
		</linearGradient>
		<path class="st21" d="M232.28,585.78c0.08-58.81,0.17-117.61,0.26-176.42v-0.24L382.2,325.3l149.07,84.55
			c0.24,58.74,0.47,117.5,0.69,176.26l-149.63,88.57L232.28,585.78z M335.08,593.28c4.63,0,8.4,4.02,8.4,8.96
			c0,4.12-2.62,7.69-6.37,8.68l-0.74,0.2v19.58l46.32,27.38L428.48,631v-19.96l-0.79-0.17c-3.92-0.83-6.76-4.52-6.76-8.79
			c0-4.94,3.77-8.96,8.4-8.96s8.4,4.02,8.4,8.96c0,4.63-3.39,8.55-7.72,8.92l-0.92,0.08v19.55l23.24-13.75l-11.99-8.22l-0.9-20.09
			c5.57-3.47,11.14-6.93,16.71-10.4l0.12-26.57c5.55-3.46,11.1-6.93,16.64-10.39l11.65,6.4c-0.02-5.6-0.05-11.2-0.07-16.8
			l19.57-11.16c4.61,2.71,9.22,5.43,13.82,8.14l0.21-110.23c-45.07-25.47-90.14-50.94-135.21-76.41l-0.49-0.28l-0.49,0.28
			c-45.07,25.56-90.14,51.11-135.22,76.67l-0.27,108.93l13.73-7.4l19.05,10.91l0.07,15.97c3.43-1.98,6.86-3.96,10.29-5.93
			l17.66,10.66l-0.04,26.39l16.72,10.93c0.12,11.36,0.25,22.73,0.37,34.09c-1.06-0.63-2.12-1.25-3.18-1.88
			c-0.05-10.03-0.1-20.06-0.15-30.08l-15.46-10.57l-18.06,9.33l0.01,12.61l48.31,28.55v-19.12l-0.96-0.04
			c-4.55-0.17-8.11-4.1-8.11-8.94C326.68,597.29,330.45,593.28,335.08,593.28z M443.74,589.87V609l9.9,7.12l23.29-13.77l-0.05-12.31
			l-0.49-0.29c-5.43-3.17-10.85-6.33-16.28-9.49l-0.52-0.3L443.74,589.87z M480.92,586.6l-0.12,13.45l37-21.88l0.04-23.23
			l-1.52,0.92c-4.65,2.8-9.3,5.61-13.96,8.42c-1.55-0.93-3.11-1.85-4.67-2.77l-1.51-0.89v16.59L480.92,586.6z M246.3,577.47
			l37.66,22.25v-10.63l-15.95-10.76l-0.07-18.7l-7.77,4.42l-13.82-7.78L246.3,577.47z M270.98,557.35l-0.07,18.97l15.4,9.3
			l18.11-9.46l-0.08-22.81l-14.78-9.06L270.98,557.35z M459.47,553.65l0.05,21.35l17.11,9.56l15.38-9.28v-17.64l-18.74-12.87
			L459.47,553.65z M503.63,524.14c-4.89,2.94-9.78,5.89-14.65,8.84l-0.48,0.29v17.77l13.78,9.16l15.58-9.54l0.04-18.88l-13.75-7.94
			L503.63,524.14z M246.41,530.8l-0.05,20.59l13.82,8.71l15.29-9.83l-0.12-18.36l-14.9-9.3L246.41,530.8z"/>
	</g>
	<g>
		<path class="st22" d="M665.27,444.29h21.31v97.85h-21.31v-41.32l-41.55,0.31v41.32l-21.99-0.31v-97.85l21.99,0.31v40.49
			l41.55-0.31V444.29z"/>
		<path class="st22" d="M728.83,525.39l51.03,0.21v16.76l-71.46-0.21V444.3l70.05,0.21v16.72l-49.61-0.21v23.45h42.93v16.54h-42.93
			L728.83,525.39L728.83,525.39z"/>
		<path class="st22" d="M849.88,492.81c11.33,16.45,22.66,32.89,33.99,49.34c-8.42,0-16.85,0-25.27,0
			c-7.34-10.95-14.69-21.9-22.03-32.85c-7.5,10.95-14.99,21.9-22.49,32.85c-8.39,0-16.78,0-25.17-0.01
			c11.61-16.71,23.23-33.42,34.84-50.13c-11.06-15.9-22.12-31.81-33.18-47.71h25.33c6.81,10.74,13.61,21.47,20.42,32.21
			c7.46-10.74,14.92-21.47,22.39-32.21h23.95C871.74,460.47,860.82,476.64,849.88,492.81z"/>
		<path class="st22" d="M973.52,542.14c-2.87-7.29-5.74-14.59-8.61-21.88c-13.17,0.01-26.35,0.02-39.52,0.02
			c-2.88,7.29-5.76,14.57-8.64,21.86c-7.84,0-15.68,0-23.51,0.01c13.42-32.63,26.83-65.27,40.25-97.9
			c7.96,0.01,15.91,0.02,23.87,0.03c13.36,32.62,26.72,65.25,40.08,97.87C989.47,542.15,981.49,542.14,973.52,542.14z M945.41,465.1
			l-14.19,37.71h28.15L945.41,465.1z"/>
		
			<linearGradient id="SVGID_22_" gradientUnits="userSpaceOnUse" x1="644.16" y1="553.9617" x2="644.16" y2="458.7251" gradientTransform="matrix(1 0 0 -1 0 1000)">
			<stop  offset="0" style="stop-color:#EEEEEE"/>
			<stop  offset="1" style="stop-color:#DEDEDD"/>
		</linearGradient>
		<polygon class="st23" points="666.27,485.78 622.72,486.11 622.72,445.59 602.73,445.31 602.73,541.16 622.72,541.45 
			622.72,500.15 666.27,499.82 666.27,541.15 685.58,541.15 685.58,445.29 666.27,445.29 		"/>
		
			<linearGradient id="SVGID_23_" gradientUnits="userSpaceOnUse" x1="744.1249" y1="553.9594" x2="744.1249" y2="458.8157" gradientTransform="matrix(1 0 0 -1 0 1000)">
			<stop  offset="0" style="stop-color:#EEEEEE"/>
			<stop  offset="1" style="stop-color:#DEDEDD"/>
		</linearGradient>
		<polygon class="st24" points="727.83,500.01 770.76,500.01 770.76,485.46 727.83,485.46 727.83,460.01 777.45,460.22 
			777.45,445.5 709.39,445.3 709.39,541.15 778.85,541.36 778.85,526.59 727.83,526.38 		"/>
		
			<linearGradient id="SVGID_24_" gradientUnits="userSpaceOnUse" x1="836.405" y1="553.9639" x2="836.405" y2="459.0225" gradientTransform="matrix(1 0 0 -1 0 1000)">
			<stop  offset="0" style="stop-color:#EEEEEE"/>
			<stop  offset="1" style="stop-color:#DEDEDD"/>
		</linearGradient>
		<polygon class="st25" points="880.78,445.29 859.24,445.29 836.29,478.31 815.36,445.29 792.49,445.29 824.98,492.01 
			790.83,541.14 813.57,541.15 836.58,507.52 859.14,541.15 881.97,541.15 848.67,492.82 		"/>
		
			<linearGradient id="SVGID_25_" gradientUnits="userSpaceOnUse" x1="945.35" y1="554.0095" x2="945.35" y2="459.0225" gradientTransform="matrix(1 0 0 -1 0 1000)">
			<stop  offset="0" style="stop-color:#EEEEEE"/>
			<stop  offset="1" style="stop-color:#DEDEDD"/>
		</linearGradient>
		<path class="st26" d="M956.7,445.28l-22.53-0.03l-39.43,95.9l21.34-0.01l8.64-21.86l40.88-0.02l8.61,21.88l21.76,0.01
			L956.7,445.28z M929.77,503.81l15.64-41.57l15.39,41.57H929.77z"/>
		
			<linearGradient id="SVGID_26_" gradientUnits="userSpaceOnUse" x1="1146.075" y1="554.1633" x2="1146.075" y2="445.9511" gradientTransform="matrix(1 0 0 -1 0 1000)">
			<stop  offset="0" style="stop-color:#EBC64D"/>
			<stop  offset="1" style="stop-color:#C89328"/>
		</linearGradient>
		<path class="st27" d="M1131.54,525.39l50.54,0.21v16.76l-72.02-0.21V444.3l70.53,0.21v16.72l-49.06-0.21v23.45h43.02v16.54h-43.02
			v24.38H1131.54z"/>
		
			<linearGradient id="SVGID_27_" gradientUnits="userSpaceOnUse" x1="1232.705" y1="554.1633" x2="1232.705" y2="445.9511" gradientTransform="matrix(1 0 0 -1 0 1000)">
			<stop  offset="0" style="stop-color:#EBC64D"/>
			<stop  offset="1" style="stop-color:#C89328"/>
		</linearGradient>
		<path class="st28" d="M1218.17,525.39l50.54,0.21v16.76l-72.02-0.21V444.3l70.53,0.21v16.72l-49.06-0.21v23.45h43.02v16.54h-43.02
			v24.38H1218.17z"/>
		
			<linearGradient id="SVGID_28_" gradientUnits="userSpaceOnUse" x1="1052.1008" y1="554.1633" x2="1052.1008" y2="445.9511" gradientTransform="matrix(1 0 0 -1 0 1000)">
			<stop  offset="0" style="stop-color:#EBC64D"/>
			<stop  offset="1" style="stop-color:#C89328"/>
		</linearGradient>
		<path class="st29" d="M1094.98,515.87c-0.08,6.37-2.95,10.98-4.01,12.63c-8.32,12.99-25.46,13.79-27.75,13.86
			c-18-0.07-36-0.15-54.01-0.22v-97.85h47.05c10.24,0,18.31,2.33,24.21,6.99c5.89,4.66,8.84,11,8.84,19.01
			c0,2.68-0.03,7.55-3.2,12.51c-3.41,5.34-8.38,7.53-10.34,8.27c2.01,0.64,4.85,1.79,7.78,3.92
			C1084.87,495.95,1095.14,503.64,1094.98,515.87z M1031.11,461.63v22.51h25.12c5.99-0.25,10.78-5.22,10.82-11.18
			c0.04-6.02-4.77-11.08-10.82-11.34L1031.11,461.63L1031.11,461.63z M1071.11,514.05c0.18-6.9-5.71-12.82-12.87-12.59h-27.13v24.53
			h27.13C1065.16,526.23,1070.94,520.72,1071.11,514.05z"/>
		<g>
			
				<linearGradient id="SVGID_29_" gradientUnits="userSpaceOnUse" x1="1146.075" y1="554.9376" x2="1146.075" y2="457.1626" gradientTransform="matrix(1 0 0 -1 0 1000)">
				<stop  offset="5.586594e-03" style="stop-color:#E1A713"/>
				<stop  offset="1" style="stop-color:#C47405"/>
			</linearGradient>
			<polygon class="st30" points="1130.54,500.01 1173.56,500.01 1173.56,485.46 1130.54,485.46 1130.54,460.01 1179.6,460.22 
				1179.6,445.5 1111.06,445.3 1111.06,541.15 1181.08,541.36 1181.08,526.59 1130.54,526.38 			"/>
		</g>
		<g>
			
				<linearGradient id="SVGID_30_" gradientUnits="userSpaceOnUse" x1="1232.71" y1="554.9376" x2="1232.71" y2="457.1626" gradientTransform="matrix(1 0 0 -1 0 1000)">
				<stop  offset="5.586594e-03" style="stop-color:#E1A713"/>
				<stop  offset="1" style="stop-color:#C47405"/>
			</linearGradient>
			<polygon class="st31" points="1217.17,526.38 1217.17,500.01 1260.2,500.01 1260.2,485.46 1217.17,485.46 1217.17,460.01 
				1266.23,460.22 1266.23,445.5 1197.7,445.3 1197.7,541.15 1267.71,541.36 1267.71,526.59 			"/>
		</g>
		
			<linearGradient id="SVGID_31_" gradientUnits="userSpaceOnUse" x1="1052.0961" y1="554.9406" x2="1052.0961" y2="457.1516" gradientTransform="matrix(1 0 0 -1 0 1000)">
			<stop  offset="5.586594e-03" style="stop-color:#E1A713"/>
			<stop  offset="1" style="stop-color:#C47405"/>
		</linearGradient>
		<path class="st32" d="M1082.97,495.81c-2.26-1.64-4.78-2.91-7.5-3.77l-2.73-0.87l2.68-1.02c2.37-0.9,6.81-3.12,9.85-7.88
			c3.04-4.76,3.04-9.45,3.04-11.97c0-7.65-2.85-13.79-8.46-18.23c-5.69-4.49-13.62-6.77-23.59-6.77h-46.05v95.86l52.99,0.21
			c3.17-0.1,19.12-1.22,26.92-13.4c0.93-1.46,3.77-5.89,3.85-12.11C1094.12,504.47,1084.84,497.16,1082.97,495.81z M1030.11,460.63
			h26.17c6.54,0.28,11.83,5.81,11.78,12.34c-0.05,6.55-5.22,11.89-11.82,12.17h-26.12v-24.51H1030.11z M1058.66,527.01
			c-0.15,0-0.3,0-0.42-0.01h-28.13v-26.53h28.1c0.15,0,0.29-0.01,0.44-0.01c3.66,0,7.09,1.46,9.67,4.1c2.54,2.6,3.88,5.98,3.79,9.51
			C1071.93,521.21,1065.89,527.01,1058.66,527.01z"/>
	</g>
</g>
</svg>
